<svg viewBox="0 0 16 16" width="64" height="64" xmlns="http://www.w3.org/2000/svg" shape-rendering="crispEdges">
  <!-- Kilau / Sparkle Atas Kiri -->
  <rect x="2" y="2" width="1" height="1" fill="#ffffff"></rect>
  <rect x="1" y="2" width="1" height="1" fill="#f43f5e"></rect>
  <rect x="3" y="2" width="1" height="1" fill="#f43f5e"></rect>
  <rect x="2" y="1" width="1" height="1" fill="#f43f5e"></rect>
  <rect x="2" y="3" width="1" height="1" fill="#f43f5e"></rect>
  <!-- Kontur Luar Hati Gelap -->
  <rect x="4" y="3" width="3" height="1" fill="#9f1239"></rect>
  <rect x="9" y="3" width="3" height="1" fill="#9f1239"></rect>
  <rect x="3" y="4" width="1" height="1" fill="#9f1239"></rect>
  <rect x="7" y="4" width="2" height="1" fill="#9f1239"></rect>
  <rect x="12" y="4" width="1" height="1" fill="#9f1239"></rect>
  <rect x="2" y="5" width="1" height="3" fill="#9f1239"></rect>
  <rect x="13" y="5" width="1" height="3" fill="#881337"></rect>
  <rect x="3" y="8" width="1" height="1" fill="#9f1239"></rect>
  <rect x="12" y="8" width="1" height="1" fill="#881337"></rect>
  <rect x="4" y="9" width="1" height="1" fill="#9f1239"></rect>
  <rect x="11" y="9" width="1" height="1" fill="#881337"></rect>
  <rect x="5" y="10" width="1" height="1" fill="#9f1239"></rect>
  <rect x="10" y="10" width="1" height="1" fill="#881337"></rect>
  <rect x="6" y="11" width="1" height="1" fill="#9f1239"></rect>
  <rect x="9" y="11" width="1" height="1" fill="#881337"></rect>
  <rect x="7" y="12" width="2" height="1" fill="#881337"></rect>
  <!-- Bodi Merah / Rose Hati -->
  <rect x="4" y="4" width="1" height="1" fill="#ffffff"></rect>
  <rect x="5" y="4" width="2" height="1" fill="#f43f5e"></rect>
  <rect x="9" y="4" width="3" height="1" fill="#e11d48"></rect>
  <rect x="3" y="5" width="1" height="1" fill="#ffffff"></rect>
  <rect x="4" y="5" width="9" height="1" fill="#f43f5e"></rect>
  <rect x="3" y="6" width="10" height="1" fill="#e11d48"></rect>
  <rect x="3" y="7" width="10" height="1" fill="#e11d48"></rect>
  <rect x="4" y="8" width="8" height="1" fill="#be123c"></rect>
  <rect x="5" y="9" width="6" height="1" fill="#be123c"></rect>
  <rect x="6" y="10" width="4" height="1" fill="#9f1239"></rect>
  <rect x="7" y="11" width="2" height="1" fill="#9f1239"></rect>
  <!-- Palang Putih Medis (Cross) di Tengah -->
  <rect x="7" y="5" width="2" height="5" fill="#ffffff"></rect>
  <rect x="5" y="6" width="6" height="2" fill="#ffffff"></rect>
  <!-- Highlight Bayangan Palang -->
  <rect x="7" y="9" width="2" height="1" fill="#f1f5f9"></rect>
  <rect x="9" y="7" width="2" height="1" fill="#f1f5f9"></rect>
</svg>
