<svg width="8" height="10" viewBox="0 0 8 10" fill="none" xmlns="http://www.w3.org/2000/svg">
<path d="M0.440514 0.589299C-0.205423 1.38722 -0.12943 3.36303 0.592499 4.80689C0.934466 5.41483 1.39042 6.7447 1.6564 7.7326C2.18834 9.8224 2.79631 9.8224 3.21427 7.7326C3.70822 5.33884 3.8602 5.03486 4.27816 5.6808C4.50614 5.98477 4.65812 6.7447 4.65812 7.39063C4.65812 8.64451 5.22807 9.7844 5.64603 9.40444C6.06399 8.94848 7.73582 4.04696 7.9638 2.6031C8.19178 0.855272 7.31787 -0.0946344 5.64603 0.0573507C4.9621 0.133343 4.50614 0.361321 4.54414 0.627295C4.69612 1.31123 4.08818 1.23524 3.51824 0.551302C2.9103 -0.208624 1.08645 -0.170627 0.440514 0.589299Z" fill="#2A7AE2"/>
</svg>
